General
Complete name                    : The Spirit.mkv
Format                           : Matroska
File size                        : 971 MiB
Duration                         : 1h 38mn
Overall bit rate                 : 1 379 Kbps


Video
ID                               : 1
Format                           : AVC
Duration                         : 1h 38mn
Bit rate                         : 904 Kbps
Width                            : 718 pixels
Height                           : 428 pixels
Display aspect ratio             : 2.35:1
Frame rate                       : 25.000 fps
Resolution                       : 8 bits
Colorimetry                      : 4:2:0
Scan type                        : Progressive
Bits/(Pixel*Frame)               : 0.118
Stream size                      : 636 MiB (66%)
Writing library                  : x264 core 79


Audio
ID                               : 2
Format                           : AC-3
Format/Info                      : Audio Coding 3
Codec ID                         : A_AC3
Duration                         : 1h 38mn
Bit rate mode                    : Constant
Bit rate                         : 448 Kbps
Channel(s)                       : 6 channels
Channel positions                : Front: L C R, Surround: L R, LFE
Sampling rate                    : 48.0 KHz
Stream size                      : 315 MiB (32%)
Language                         : English

Text #1
Language                         : English

Text #2
Language                         : Italian

Text #3
Language                         : Spanish

Text #4
Language                         : Danish

Text #5
Language                         : Finnish

Text #6
Language                         : unknown

Text #7
Language                         : Norwegian

Text #8
Language                         : Swedish

Menu
00:00:00.000                     : Chapter 01


